<?xml version="1.0" standalone="no"?>
<!DOCTYPE svg PUBLIC "-//W3C//DTD SVG 20010904//EN"
 "http://www.w3.org/TR/2001/REC-SVG-20010904/DTD/svg10.dtd">
<svg version="1.0" xmlns="http://www.w3.org/2000/svg"
 width="4088.000000pt" height="3270.000000pt" viewBox="0 0 4088.000000 3270.000000"
 preserveAspectRatio="xMidYMid meet">

<g transform="translate(0.000000,3270.000000) scale(0.100000,-0.100000)"
fill="#000000" stroke="none">
<path d="M19870 29179 c-1409 -57 -2881 -374 -4210 -907 -1921 -770 -3622
-1990 -4979 -3572 -1077 -1255 -1902 -2710 -2422 -4270 -176 -531 -294 -975
-423 -1594 l-22 -110 -23 57 c-13 31 -26 57 -30 57 -4 0 -15 20 -25 45 -11 25
-23 45 -28 45 -4 0 -8 6 -8 14 0 7 -10 24 -22 38 -13 13 -30 37 -38 54 -18 36
-31 51 -122 142 -89 88 -116 112 -127 112 -4 0 -19 10 -33 23 -13 12 -44 32
-68 45 -36 19 -52 22 -104 16 -171 -17 -250 -71 -271 -186 -4 -21 -10 -38 -14
-38 -4 0 -16 -46 -25 -102 -10 -57 -21 -105 -25 -108 -3 -3 -17 -45 -30 -95
-12 -49 -26 -92 -30 -95 -8 -6 -41 -106 -41 -126 0 -8 -3 -14 -8 -14 -4 0 -16
-29 -26 -65 -10 -36 -22 -65 -26 -65 -4 0 -17 -35 -29 -77 -13 -43 -26 -80
-30 -83 -8 -6 -41 -106 -41 -126 0 -8 -4 -14 -10 -14 -5 0 -14 -19 -21 -42
-21 -80 -34 -118 -40 -118 -4 0 -15 -29 -24 -65 -10 -36 -22 -65 -26 -65 -5 0
-9 -6 -9 -14 0 -19 -32 -120 -41 -126 -3 -3 -17 -41 -29 -85 -13 -44 -28 -83
-32 -86 -5 -3 -15 -30 -23 -60 -8 -30 -19 -55 -25 -57 -5 -2 -10 -9 -10 -16 0
-18 -42 -150 -50 -156 -3 -3 -15 -34 -25 -70 -10 -36 -23 -68 -28 -71 -4 -3
-15 -32 -23 -65 -9 -32 -19 -61 -23 -64 -5 -3 -18 -39 -30 -80 -13 -41 -26
-77 -30 -80 -4 -3 -16 -34 -26 -70 -10 -36 -23 -68 -27 -71 -5 -3 -15 -30 -23
-60 -8 -30 -19 -55 -25 -57 -5 -2 -10 -9 -10 -16 0 -20 -42 -150 -50 -156 -4
-3 -16 -34 -26 -70 -10 -36 -24 -71 -31 -78 -7 -7 -13 -19 -13 -27 0 -17 -32
-119 -40 -125 -3 -3 -15 -32 -25 -65 -10 -33 -21 -62 -25 -65 -4 -3 -15 -32
-25 -65 -9 -33 -20 -62 -24 -65 -9 -6 -51 -136 -51 -156 0 -7 -5 -14 -10 -16
-6 -2 -17 -27 -25 -57 -8 -30 -18 -57 -23 -60 -5 -3 -19 -43 -32 -88 -13 -46
-27 -83 -30 -83 -4 0 -15 -28 -25 -62 -11 -35 -22 -65 -25 -68 -4 -3 -15 -32
-25 -65 -10 -33 -22 -62 -25 -65 -17 -14 -30 -89 -20 -112 10 -20 94 -68 121
-68 5 0 9 -4 9 -9 0 -6 27 -18 60 -28 33 -9 60 -21 60 -25 0 -4 14 -8 30 -8
17 0 30 5 30 10 0 6 9 10 20 10 12 0 26 12 35 30 9 16 19 30 24 30 4 0 19 21
32 48 13 26 27 49 30 52 3 3 14 21 24 40 10 19 21 37 25 40 3 3 17 35 30 73
13 37 26 67 30 67 3 0 14 26 25 58 11 31 22 59 25 62 4 3 15 32 25 65 10 33
21 62 25 65 4 3 18 50 30 105 13 55 27 102 31 105 4 3 14 41 23 85 9 43 20 82
25 85 4 3 16 49 26 103 10 53 22 97 26 97 4 0 10 24 13 53 4 32 14 59 25 69
10 8 60 23 112 33 52 10 96 21 99 25 3 4 59 17 125 30 66 13 122 26 125 30 3
3 49 14 103 24 53 10 97 21 97 25 0 4 45 16 100 26 55 10 100 21 100 25 0 4
57 17 127 30 71 13 130 26 133 30 4 5 160 40 181 40 4 0 9 -201 12 -447 10
-807 85 -1516 248 -2328 417 -2077 1349 -4022 2713 -5660 429 -515 987 -1082
1501 -1525 1964 -1694 4405 -2753 6985 -3030 497 -53 826 -70 1390 -70 885 0
1539 61 2425 224 751 138 1724 426 2420 716 55 23 116 47 135 55 169 63 799
363 1083 516 1255 676 2361 1529 3344 2581 1053 1127 1909 2465 2488 3888 419
1030 711 2142 845 3211 11 90 23 179 26 198 l5 33 22 -43 c11 -24 25 -46 30
-48 5 -2 17 -23 28 -47 10 -24 27 -54 39 -66 11 -12 20 -25 20 -30 0 -4 15
-14 33 -21 27 -12 40 -12 82 1 28 8 52 17 55 21 3 4 37 16 75 26 39 10 72 21
75 25 3 4 30 15 60 25 30 10 57 21 60 25 3 4 38 17 78 29 39 12 72 26 72 30 0
5 25 16 55 26 30 9 55 20 55 24 0 4 23 15 50 26 28 11 50 22 50 26 0 4 27 17
60 29 33 12 60 26 60 30 0 4 18 13 40 20 23 8 44 19 48 25 4 6 30 22 57 35 28
13 52 27 55 30 3 4 20 15 38 24 17 9 32 20 32 24 0 4 20 16 45 27 25 11 45 23
45 27 0 4 12 14 28 22 15 8 41 26 57 40 17 14 38 29 48 32 9 3 17 9 17 14 0 5
17 19 38 31 20 13 52 38 70 56 18 18 37 33 42 33 5 0 19 14 32 30 12 17 28 30
35 30 8 0 16 7 19 15 4 8 12 15 19 15 8 0 17 9 20 20 3 11 11 20 16 20 5 0 9
4 9 10 0 5 31 40 68 77 38 37 77 83 87 101 11 17 23 32 27 32 4 0 15 17 25 38
9 20 25 45 34 55 9 10 22 38 29 63 7 24 16 44 20 44 4 0 13 36 20 80 10 65 10
93 0 140 -7 33 -17 60 -21 60 -5 0 -9 5 -9 10 0 23 -46 79 -80 96 -19 11 -39
24 -45 30 -5 6 -29 17 -52 24 -24 7 -43 16 -43 20 0 13 -205 41 -340 47 -180
7 -700 -28 -700 -47 0 -4 -26 -11 -57 -14 -107 -12 -208 -29 -213 -36 -7 -9
-148 -28 -270 -36 -58 -4 -107 -10 -110 -15 -3 -4 -40 -11 -82 -15 l-76 -7 -6
104 c-3 57 -8 218 -10 356 -6 250 -5 253 16 273 12 11 27 20 34 20 7 0 19 7
27 15 8 8 34 24 58 37 24 12 46 25 49 28 3 4 26 15 53 25 26 10 47 21 47 26 0
4 26 15 58 24 31 9 59 21 62 25 5 9 197 50 231 50 10 0 19 4 19 8 0 17 211 32
430 32 203 0 417 -15 430 -30 3 -3 34 -11 70 -18 121 -24 170 -37 170 -44 0
-5 8 -8 18 -8 24 0 115 -33 130 -47 7 -7 22 -13 33 -13 17 0 19 8 19 99 0 120
-18 353 -28 361 -4 3 -13 17 -20 33 -6 15 -28 35 -49 45 -21 9 -40 20 -43 23
-9 11 -261 39 -347 39 -49 0 -83 4 -83 10 0 6 -18 10 -40 10 -22 0 -40 -4 -40
-9 0 -4 -66 -11 -147 -14 -168 -6 -343 -26 -343 -39 0 -4 -8 -8 -17 -8 -37 0
-243 -44 -243 -52 0 -4 -9 -8 -20 -8 -26 0 -144 -32 -150 -41 -3 -4 -29 -14
-59 -23 -30 -9 -57 -19 -60 -24 -3 -4 -39 -18 -78 -30 -40 -13 -73 -26 -73
-30 0 -4 -20 -14 -46 -21 -25 -7 -50 -19 -57 -25 -7 -7 -20 -15 -29 -19 -22
-8 -23 -6 -43 198 -113 1140 -408 2337 -843 3430 -1057 2652 -3005 4906 -5487
6347 -1791 1040 -3834 1635 -5907 1718 -266 11 -835 10 -1108 -1z m1370 -3178
c1117 -99 2125 -354 3110 -787 482 -212 1128 -570 1519 -843 l63 -44 -3337
-3337 -3336 -3336 -75 -19 c-41 -10 -74 -22 -74 -26 0 -3 -35 -16 -77 -28 -42
-11 -79 -24 -82 -28 -3 -5 -32 -17 -63 -26 -32 -10 -58 -21 -58 -25 0 -4 -29
-19 -65 -32 -36 -13 -65 -28 -65 -32 0 -5 -18 -15 -40 -24 -22 -9 -40 -19 -40
-23 0 -3 -20 -15 -45 -26 -25 -11 -45 -22 -45 -26 0 -3 -21 -17 -47 -30 -27
-13 -57 -32 -67 -41 -11 -10 -25 -18 -32 -18 -7 0 -17 -6 -21 -14 -4 -7 -23
-21 -40 -30 -18 -9 -33 -20 -33 -24 0 -4 -12 -15 -27 -24 -30 -18 -77 -54
-102 -78 -9 -8 -32 -26 -51 -40 -36 -25 -250 -232 -250 -242 0 -3 -20 -27 -45
-52 -25 -26 -45 -50 -45 -54 0 -4 -14 -23 -30 -42 -17 -19 -36 -47 -43 -62 -6
-16 -15 -28 -19 -28 -4 0 -14 -16 -22 -35 -8 -19 -19 -35 -24 -35 -4 0 -16
-22 -26 -50 -10 -27 -21 -50 -25 -50 -4 0 -18 -33 -31 -72 -14 -40 -28 -75
-32 -78 -18 -13 -38 -143 -38 -250 l0 -115 -135 -135 -135 -135 0 73 c0 41 -4
72 -10 72 -6 0 -10 41 -10 103 0 56 -7 269 -15 472 -8 204 -18 450 -21 548 -4
97 -11 177 -16 177 -4 0 -8 21 -8 48 1 115 -34 707 -42 710 -4 2 -8 24 -8 48
l0 44 -200 0 -200 0 0 -1413 0 -1412 -2110 -2110 c-1160 -1160 -2111 -2107
-2113 -2105 -19 22 -206 311 -294 455 -638 1044 -1068 2196 -1273 3409 -30
179 -28 196 17 196 25 0 167 33 173 40 3 3 39 16 79 28 41 12 77 26 80 30 4 5
32 16 64 26 31 10 57 21 57 25 0 4 29 18 65 31 36 13 65 27 65 31 0 4 20 15
45 25 25 9 45 20 45 24 0 5 20 16 45 27 25 10 45 21 45 25 0 3 21 16 47 29 25
12 55 31 65 41 10 10 25 18 33 18 7 0 18 6 22 13 4 7 29 24 56 36 26 13 47 26
47 30 0 4 10 13 23 19 22 10 66 43 97 73 9 8 23 19 31 23 38 19 62 35 70 48 5
7 9 -68 9 -174 0 -119 4 -188 10 -188 6 0 10 -10 10 -22 0 -44 37 -176 53
-193 10 -9 17 -20 17 -25 0 -17 64 -80 81 -80 10 0 25 -8 35 -17 13 -14 35
-17 106 -17 49 0 92 4 96 9 4 6 24 19 45 29 20 11 37 25 37 32 0 6 6 14 14 17
22 8 39 129 33 226 -12 183 -31 386 -38 391 -3 3 -13 109 -20 235 -26 436 -9
2172 22 2183 5 2 9 29 9 60 -1 115 34 807 40 812 10 8 30 658 30 958 l0 262
-40 0 c-50 0 -140 -19 -140 -30 0 -4 -12 -11 -26 -14 -31 -8 -119 -93 -129
-126 -4 -13 -13 -29 -19 -36 -7 -6 -18 -38 -26 -70 -8 -33 -17 -61 -20 -64
-13 -11 -31 -195 -42 -432 -7 -137 -15 -248 -20 -248 -4 0 -8 -30 -8 -67 1
-138 -33 -868 -40 -873 -6 -5 -30 -487 -30 -620 0 -30 -4 -50 -8 -44 -7 11
-203 54 -246 54 -13 0 -26 5 -28 10 -9 27 -607 27 -616 1 -2 -6 -16 -11 -30
-11 -45 0 -262 -43 -262 -52 0 -4 -8 -8 -19 -8 -22 0 -124 -31 -131 -40 -3 -4
-17 -10 -32 -14 -34 -8 -33 -13 -13 149 218 1756 881 3369 1953 4748 266 342
496 602 822 927 946 946 2048 1672 3275 2157 902 357 1855 575 2830 648 314
23 304 23 820 20 385 -3 526 -7 715 -24z m7304 -4344 c337 -513 647 -1101 879
-1672 306 -753 540 -1658 631 -2445 l7 -55 -36 -19 c-19 -11 -35 -22 -35 -26
0 -4 -18 -15 -40 -25 -22 -10 -40 -21 -40 -25 0 -4 -16 -15 -35 -26 -19 -10
-35 -22 -35 -25 0 -4 -18 -16 -40 -28 -21 -11 -48 -29 -60 -41 -11 -11 -30
-20 -41 -20 -20 0 -21 4 -16 48 4 26 10 95 13 155 4 59 11 107 15 107 5 0 9
56 9 125 0 69 -4 125 -9 125 -4 0 -11 28 -14 63 -9 88 -23 130 -56 168 -25 28
-36 33 -88 37 -61 4 -133 -10 -155 -31 -7 -7 -32 -21 -56 -31 -45 -20 -62 -41
-62 -75 0 -10 -4 -21 -10 -23 -9 -3 -20 -115 -37 -368 -3 -52 -9 -97 -13 -100
-13 -10 -30 -677 -30 -1205 0 -533 15 -1027 32 -1033 4 -2 8 -22 8 -45 0 -65
30 -218 45 -233 11 -11 58 -14 219 -14 l206 0 0 880 c0 580 3 880 10 880 6 0
10 9 10 20 0 25 25 75 51 103 10 12 19 24 19 28 0 8 90 99 99 99 3 0 24 16 45
35 22 19 45 35 52 35 7 0 14 4 16 8 4 9 76 52 87 52 15 0 21 -78 31 -400 38
-1238 -146 -2424 -557 -3580 -307 -865 -772 -1735 -1324 -2477 -308 -414 -564
-709 -953 -1099 -295 -294 -504 -484 -773 -701 -1337 -1079 -2904 -1770 -4597
-2028 -557 -84 -787 -100 -1476 -100 -628 0 -745 6 -1185 61 -1506 188 -2867
687 -4127 1513 -98 64 -178 118 -178 121 0 3 1742 1747 3870 3875 l3870 3870
0 -428 c0 -278 3 -427 10 -427 6 0 10 -17 10 -39 0 -50 29 -214 38 -221 5 -3
18 -31 30 -63 21 -56 33 -75 60 -100 8 -7 24 -21 35 -32 12 -12 41 -27 64 -34
69 -23 238 -1 266 34 4 6 5 417 2 915 l-7 905 205 204 205 204 260 -5 260 -5
6 60 c3 33 6 120 6 193 0 83 4 134 10 134 6 0 10 16 10 35 l0 35 -52 0 -53 0
2179 2179 c1199 1199 2184 2177 2188 2175 5 -3 60 -83 122 -177z m-21292
-3068 c9 -10 20 -19 25 -19 15 -1 58 -45 83 -85 13 -22 32 -46 42 -53 10 -7
18 -19 18 -27 0 -7 6 -20 13 -27 7 -7 22 -29 33 -48 10 -19 25 -41 32 -48 6
-7 12 -18 12 -23 0 -6 16 -44 35 -85 19 -41 35 -81 35 -89 0 -7 6 -20 13 -27
7 -7 24 -48 37 -90 13 -43 27 -78 31 -78 17 0 18 -77 4 -207 -9 -77 -24 -254
-34 -394 -12 -158 -24 -255 -30 -257 -6 -2 -17 -10 -25 -17 -7 -8 -39 -21 -70
-30 -31 -9 -56 -21 -56 -26 0 -5 -6 -9 -14 -9 -19 0 -120 -33 -126 -41 -3 -4
-48 -17 -100 -30 -52 -13 -96 -26 -98 -30 -2 -4 -47 -15 -100 -25 -53 -10 -99
-21 -102 -25 -10 -13 -316 -49 -422 -49 -7 0 22 82 32 90 4 3 17 35 30 73 13
37 27 67 32 67 4 0 8 7 8 15 0 16 31 87 42 95 3 3 15 32 27 64 11 33 25 62 29
65 5 3 17 27 27 54 10 26 21 47 25 47 3 0 14 25 24 55 9 30 20 55 24 55 4 0
18 32 31 70 13 39 27 70 31 70 4 0 15 24 25 53 9 28 20 54 24 57 8 6 29 63 43
113 6 20 14 37 18 37 5 0 16 26 26 58 10 31 23 62 29 68 6 7 17 37 24 68 7 31
16 56 20 56 4 0 18 44 31 98 14 53 27 99 31 102 7 6 39 167 39 198 0 12 4 22
9 22 5 0 12 27 16 60 7 56 9 60 29 54 11 -3 28 -14 38 -25z m4528 -1469 c0 -5
21 -10 48 -10 59 0 165 -25 170 -39 2 -6 17 -18 33 -26 16 -9 29 -22 29 -30 0
-7 8 -21 18 -31 16 -16 17 -56 20 -487 l3 -469 -55 -53 c-30 -30 -69 -61 -85
-70 -17 -8 -31 -19 -31 -23 0 -4 -18 -16 -40 -26 -22 -11 -40 -22 -40 -26 0
-3 -26 -17 -57 -30 -32 -13 -62 -29 -68 -35 -5 -7 -26 -18 -45 -26 -19 -7 -41
-19 -48 -26 -7 -7 -32 -18 -55 -25 -23 -7 -48 -18 -55 -24 -6 -7 -37 -20 -67
-29 -30 -8 -55 -19 -55 -23 0 -4 -27 -16 -60 -26 -33 -11 -60 -22 -60 -26 0
-4 -35 -17 -77 -30 -43 -13 -80 -27 -83 -31 -3 -5 -37 -16 -75 -26 -39 -10
-72 -21 -75 -24 -6 -8 -130 -39 -153 -39 -9 0 -17 6 -17 13 0 6 -8 80 -16 162
-17 159 -32 1144 -20 1228 6 41 10 44 61 67 30 13 55 27 55 30 0 3 23 14 50
24 28 10 50 22 50 26 0 4 27 16 60 26 33 10 60 21 60 24 0 4 39 18 88 30 48
13 90 27 93 32 6 10 148 38 190 38 16 0 29 5 29 10 0 6 53 10 140 10 87 0 140
-4 140 -10z m22787 -1051 c35 -6 69 -16 76 -23 7 -6 29 -19 49 -30 28 -14 38
-26 43 -52 7 -38 -3 -104 -15 -104 -4 0 -13 -14 -19 -30 -5 -17 -17 -33 -26
-36 -8 -3 -15 -11 -15 -18 0 -12 -107 -126 -118 -126 -4 0 -25 -16 -47 -35
-22 -20 -48 -38 -57 -41 -10 -3 -18 -9 -18 -14 0 -5 -20 -19 -45 -31 -25 -12
-45 -26 -45 -31 0 -4 -15 -15 -32 -24 -18 -9 -35 -20 -38 -24 -3 -4 -20 -15
-37 -24 -18 -9 -33 -20 -33 -24 0 -4 -21 -15 -46 -26 -24 -10 -50 -24 -57 -30
-7 -6 -31 -20 -54 -30 -24 -11 -43 -22 -43 -26 0 -4 -27 -18 -60 -30 -33 -12
-60 -26 -60 -30 0 -4 -25 -15 -55 -25 -30 -9 -55 -20 -55 -25 0 -4 -25 -15
-55 -25 -30 -9 -55 -20 -55 -24 0 -4 -34 -17 -75 -30 -41 -12 -75 -25 -75 -29
0 -7 -106 -42 -127 -42 -6 0 -13 -4 -15 -10 -3 -9 -138 -53 -144 -47 -2 1 1
34 6 72 7 60 30 362 57 760 l8 110 50 9 c28 5 52 12 55 16 5 6 101 25 190 38
19 2 37 8 40 12 3 4 59 15 125 25 66 9 122 21 125 25 3 4 59 13 125 20 66 6
122 14 124 16 10 9 389 3 448 -7z"/>
<path d="M16021 20050 c-18 -4 -36 -12 -40 -17 -3 -5 -20 -15 -38 -22 -42 -17
-93 -67 -118 -117 -11 -21 -24 -42 -29 -45 -9 -7 -46 -170 -46 -206 0 -12 -4
-23 -9 -25 -11 -4 -29 -257 -37 -525 -4 -112 -10 -203 -14 -203 -4 0 -10 -80
-13 -177 -17 -465 -31 -748 -38 -753 -5 -3 -11 -124 -15 -268 -4 -145 -10
-259 -13 -254 -6 9 -210 52 -248 52 -12 0 -23 6 -26 13 -5 16 -614 18 -625 1
-4 -6 -32 -14 -62 -18 -89 -11 -220 -39 -220 -48 0 -4 -9 -8 -21 -8 -24 0
-122 -30 -129 -40 -3 -4 -32 -15 -65 -25 -33 -10 -62 -22 -65 -25 -3 -3 -30
-17 -60 -29 -30 -13 -57 -27 -60 -31 -3 -4 -26 -15 -52 -25 -27 -10 -48 -22
-48 -26 0 -5 -18 -16 -40 -25 -22 -9 -40 -19 -40 -23 0 -4 -24 -18 -52 -32
-29 -13 -61 -34 -71 -46 -10 -13 -24 -23 -30 -23 -7 0 -18 -9 -25 -20 -7 -11
-19 -20 -27 -20 -8 0 -20 -9 -27 -20 -7 -11 -17 -20 -22 -20 -5 0 -61 -54
-125 -119 -169 -174 -233 -250 -247 -293 -4 -10 -11 -18 -16 -18 -5 0 -16 -16
-24 -35 -8 -19 -18 -35 -23 -35 -5 0 -19 -27 -31 -60 -12 -33 -26 -60 -30 -60
-8 0 -40 -93 -40 -116 0 -8 -4 -14 -9 -14 -9 0 -51 -206 -51 -252 0 -14 -5
-28 -10 -30 -13 -4 -14 -339 -2 -347 5 -3 12 -32 16 -64 6 -56 22 -91 58 -131
10 -11 18 -25 18 -32 0 -7 6 -17 13 -21 16 -11 57 -69 57 -83 0 -5 4 -10 8
-10 8 0 99 -87 144 -138 15 -17 41 -38 58 -47 16 -8 30 -20 30 -25 0 -5 17
-17 37 -25 21 -9 40 -19 43 -23 6 -9 108 -52 122 -52 5 0 15 -6 23 -13 7 -7
45 -19 84 -27 39 -7 71 -16 71 -20 0 -11 149 -30 230 -30 108 0 294 19 298 30
2 6 13 10 24 10 34 0 158 33 158 42 0 4 8 8 18 8 26 0 152 40 152 49 0 4 20
13 46 20 25 7 51 19 57 26 7 7 42 22 77 35 35 13 70 29 78 36 7 8 19 14 26 14
7 0 21 8 32 18 10 9 38 26 62 36 23 11 42 22 42 26 0 3 23 16 50 28 28 12 50
26 50 30 0 4 18 16 40 26 22 10 40 21 40 25 0 4 21 18 46 31 26 12 55 30 65
39 56 48 86 69 112 77 9 4 17 10 17 14 0 7 65 50 76 50 2 0 4 -45 4 -100 0
-55 4 -100 9 -100 4 0 11 -53 14 -117 6 -119 27 -214 53 -240 8 -8 14 -19 14
-25 0 -17 73 -84 100 -93 14 -4 28 -12 32 -18 9 -15 191 -14 196 1 2 7 12 12
22 12 23 0 83 71 91 108 4 15 7 44 8 65 0 20 6 37 11 37 6 0 10 16 10 35 0 19
-4 35 -8 35 -8 0 -42 357 -42 437 0 23 -4 43 -9 45 -17 6 -31 443 -31 973 0
537 17 1245 30 1255 4 3 10 79 13 170 18 467 31 716 37 720 8 6 27 524 37 983
l6 327 -54 -1 c-30 -1 -69 -5 -88 -9z m-831 -2930 c0 -5 22 -10 48 -10 57 0
155 -24 160 -39 2 -6 9 -11 15 -11 20 -1 62 -43 74 -75 8 -20 13 -178 16 -490
l5 -461 -61 -60 c-34 -33 -74 -66 -89 -73 -16 -8 -28 -18 -28 -22 0 -5 -17
-16 -37 -26 -21 -9 -43 -22 -49 -28 -6 -6 -31 -19 -55 -30 -24 -11 -46 -23
-49 -26 -3 -4 -24 -15 -48 -24 -23 -10 -42 -20 -42 -24 0 -4 -22 -15 -50 -25
-27 -10 -50 -21 -50 -25 0 -4 -34 -18 -75 -32 -41 -13 -75 -27 -75 -31 0 -4
-25 -14 -55 -23 -30 -8 -55 -19 -55 -23 0 -4 -35 -18 -78 -31 -42 -14 -79 -28
-82 -31 -3 -4 -36 -15 -75 -25 -38 -10 -72 -22 -75 -27 -3 -4 -42 -15 -85 -24
-44 -9 -82 -20 -85 -24 -8 -12 -197 -31 -335 -33 -121 -2 -273 18 -236 31 8 3
0 11 -22 21 -36 17 -77 60 -77 80 0 6 -4 11 -8 11 -12 0 -29 40 -37 84 -4 20
-11 36 -15 36 -11 0 -30 140 -30 227 0 77 17 204 29 213 4 3 15 31 24 63 10
31 21 57 26 57 4 0 15 23 25 50 10 28 23 54 30 58 6 4 20 24 31 45 11 20 22
37 25 37 3 0 14 15 25 32 10 18 35 49 54 69 20 20 41 45 47 55 6 10 19 22 29
28 10 6 39 32 65 59 26 26 52 47 58 47 6 0 16 9 22 20 6 11 16 20 23 20 7 0
28 13 47 30 19 16 47 35 62 41 16 6 28 15 28 19 0 4 19 15 43 26 23 10 45 24
49 30 4 7 30 20 58 30 27 10 50 21 50 25 0 3 20 14 45 23 25 10 45 21 45 25 0
4 26 16 58 27 31 10 59 22 62 26 3 3 41 17 85 30 44 12 82 26 85 29 3 4 55 15
115 25 61 10 112 22 113 26 5 12 282 10 282 -2z"/>
<path d="M16720 19011 c0 -4 -27 -11 -60 -14 -33 -4 -73 -15 -88 -24 -32 -22
-61 -54 -62 -70 0 -6 -5 -13 -11 -15 -6 -2 -14 -27 -16 -54 -4 -42 -2 -55 14
-70 11 -10 23 -27 26 -36 4 -10 13 -18 21 -18 8 0 21 -8 28 -19 15 -21 69 -51
93 -51 8 0 15 -4 15 -8 0 -13 95 -32 159 -32 66 0 117 15 125 36 3 8 12 14 21
14 8 0 22 18 31 40 9 22 20 40 25 40 5 0 9 36 9 80 0 47 -4 80 -10 80 -5 0
-10 8 -10 18 -1 43 -110 91 -207 92 -18 0 -33 5 -33 10 0 6 -16 10 -35 10 -19
0 -35 -4 -35 -9z"/>
<path d="M24570 16451 l0 -1448 33 -36 c17 -19 46 -39 62 -43 17 -4 33 -12 37
-18 9 -14 236 -15 246 -1 4 6 25 16 47 24 60 21 115 83 115 130 0 12 5 21 10
21 6 0 10 37 10 90 0 50 -4 90 -9 90 -4 0 -11 102 -14 228 -10 429 -31 902
-39 902 -4 0 -8 28 -8 63 1 141 -35 867 -42 867 -4 0 -8 24 -8 53 0 28 -5 159
-12 290 l-12 237 -208 0 -208 0 0 -1449z"/>
<path d="M27280 17738 c-80 -11 -147 -23 -150 -28 -3 -4 -47 -15 -97 -25 -51
-10 -93 -21 -93 -25 0 -4 -30 -15 -67 -24 -37 -10 -70 -21 -73 -25 -3 -3 -40
-17 -82 -31 -43 -13 -78 -26 -78 -30 0 -3 -22 -14 -50 -24 -27 -10 -50 -21
-50 -25 0 -4 -29 -18 -65 -31 -36 -13 -65 -28 -65 -33 0 -4 -16 -15 -35 -23
-19 -8 -35 -18 -35 -23 0 -5 -14 -14 -30 -21 -17 -7 -34 -18 -38 -24 -4 -6
-23 -20 -42 -30 -19 -11 -42 -25 -50 -32 -8 -7 -30 -26 -49 -41 -52 -43 -231
-219 -231 -228 0 -4 -12 -20 -27 -35 -43 -44 -56 -62 -78 -103 -11 -20 -23
-37 -26 -37 -4 0 -13 -16 -19 -35 -6 -19 -17 -41 -24 -48 -14 -14 -56 -114
-56 -133 0 -8 -4 -14 -8 -14 -5 0 -17 -35 -28 -77 -10 -43 -21 -80 -25 -83 -4
-3 -12 -45 -20 -95 -26 -176 -11 -692 21 -703 6 -2 10 -12 10 -23 0 -27 32
-153 40 -159 4 -3 17 -35 30 -72 13 -38 27 -68 32 -68 4 0 15 -15 24 -32 9
-18 23 -37 30 -41 8 -4 14 -13 14 -18 0 -15 133 -149 147 -149 7 0 17 -9 23
-20 6 -11 17 -20 25 -20 8 0 23 -8 33 -18 10 -10 45 -29 78 -42 32 -13 61 -27
64 -30 7 -10 100 -40 122 -40 10 0 18 -4 18 -8 0 -9 176 -42 217 -42 12 0 23
-5 25 -10 4 -14 562 -14 566 0 2 5 20 10 41 10 52 0 265 30 271 39 3 4 49 15
103 26 53 10 97 21 97 25 0 4 38 17 85 31 47 13 85 27 85 31 0 4 25 15 55 23
30 9 55 20 55 24 0 5 21 16 48 26 26 10 52 23 57 29 6 6 29 20 53 30 23 11 42
23 42 27 0 5 11 11 25 15 14 3 31 14 38 23 6 9 28 26 48 38 45 26 76 50 108
86 14 15 30 27 35 27 5 0 39 33 77 73 37 39 77 81 88 93 12 12 21 26 21 32 0
6 8 17 18 24 19 15 37 41 52 77 6 13 17 29 24 35 7 6 19 27 27 46 7 19 20 43
29 52 9 10 22 40 29 68 7 27 16 50 20 50 10 0 29 56 37 107 4 24 10 41 13 38
8 -5 41 157 41 203 0 16 4 32 9 34 15 5 30 393 20 494 -5 48 -13 90 -17 93 -5
3 -16 36 -26 74 -10 37 -22 67 -26 67 -4 0 -16 23 -26 50 -10 28 -21 50 -24
50 -4 0 -17 24 -30 53 -13 28 -32 58 -42 65 -10 7 -18 18 -18 24 0 6 -9 20
-20 32 -74 78 -122 125 -154 151 -21 17 -47 38 -58 47 -11 10 -30 20 -42 24
-11 4 -31 17 -44 29 -12 13 -38 26 -57 29 -19 4 -40 12 -47 19 -17 16 -85 47
-103 47 -8 0 -15 4 -15 9 0 5 -30 17 -67 27 -38 10 -71 22 -74 27 -4 5 -49 18
-100 28 -129 25 -393 23 -589 -3z m568 -348 c2 -5 12 -10 22 -10 27 0 120 -32
120 -42 0 -4 6 -8 13 -8 15 0 79 -34 108 -57 52 -43 155 -151 169 -178 8 -16
25 -39 36 -52 12 -13 25 -39 28 -58 4 -19 11 -35 16 -35 9 0 40 -85 40 -112 0
-10 4 -18 9 -18 16 0 32 -121 38 -280 5 -162 -16 -391 -37 -398 -5 -2 -10 -11
-10 -19 0 -25 -33 -123 -41 -123 -4 0 -10 -12 -13 -27 -8 -34 -38 -97 -49
-101 -4 -2 -15 -18 -24 -35 -9 -18 -24 -38 -34 -45 -11 -7 -19 -18 -19 -24 0
-5 -33 -42 -72 -80 -96 -92 -110 -104 -130 -111 -10 -4 -18 -11 -18 -16 0 -6
-22 -20 -50 -32 -27 -12 -50 -25 -50 -29 0 -4 -22 -16 -50 -26 -27 -10 -50
-21 -50 -25 0 -4 -29 -15 -65 -24 -36 -10 -65 -21 -65 -25 0 -7 -97 -32 -175
-45 -22 -4 -42 -10 -45 -14 -6 -9 -267 -41 -332 -41 -27 0 -48 -4 -48 -10 0
-6 -85 -10 -235 -10 -150 0 -235 4 -235 10 0 6 -19 10 -42 10 -50 0 -221 30
-228 39 -3 4 -29 17 -58 29 -53 21 -152 106 -152 130 0 6 -8 20 -18 30 -18 18
-52 111 -52 142 0 10 -6 20 -12 23 -10 3 -13 47 -13 177 0 130 3 174 13 178 6
2 12 15 12 28 0 34 31 168 40 174 4 3 12 25 18 50 26 109 36 140 43 140 4 0
15 25 24 55 10 30 21 55 25 55 4 0 18 27 30 60 12 33 25 60 29 60 3 0 15 19
26 42 11 24 26 49 33 58 7 8 24 28 37 44 14 16 25 33 25 37 0 17 209 217 250
239 10 6 24 16 32 23 7 7 36 24 63 37 28 13 52 27 55 30 3 4 26 15 53 25 26
10 47 21 47 24 0 4 32 15 70 26 39 11 70 22 70 25 0 4 33 13 73 20 39 7 88 16
107 21 19 5 47 9 63 9 15 0 27 4 27 9 0 5 54 17 120 26 66 10 120 22 120 26 0
20 312 19 318 -1z"/>
</g>
</svg>
